<?xml version="1.0" encoding="UTF-8"?>
<svg id="Layer_1" data-name="Layer 1" xmlns="http://www.w3.org/2000/svg" viewBox="0 0 278 50">
  <defs>
    <style>
      .cls-1, .cls-2 {
        fill: #fff;
      }

      .cls-2 {
        fill-rule: evenodd;
      }
    </style>
  </defs>
  <path class="cls-1" d="m108.55,37.24l2.99-6.38h-1.29c-1.29,0-3.72-.32-2.18-3.63l5.49-11.71h3.88l1.78-3.8h-3.88l4.77-10.26h-10.26l-4.68,10.18h-2.58l-1.78,3.8h2.58l-8.48,18.17c-.73,1.53-.57,3.55,1.53,3.55l12.12.08h0Zm14.05-21.81l-8.8,18.9c-.57,1.21.4,2.99,1.78,2.91h20.27c1.78,0,3.31-.89,4.12-1.78.16-.16.32-.32.4-.48s.16-.24.24-.32l9.45-20.27c.48-1.05.24-2.67-1.53-2.67h-20.44c-2.83-.08-4.36,1.21-5.49,3.72h0Zm15.59,2.18l-5.17,11.15c-.57,1.21-1.29,2.1-2.5,2.1h-2.26c-1.45,0-1.94-1.45-1.37-2.75l5.01-10.66c.57-1.29,1.7-1.94,3.31-1.94h2.26c1.62-.08,1.45.65.73,2.1Zm-53.23,4.2h10.26l3.55-7.59c.57-1.29-.16-2.67-1.53-2.67h-20.27c-2.42,0-4.52,1.37-5.17,2.75l-9.29,19.95c-.4.97.48,2.99,1.86,2.99h24.96l2.99-6.38h-14.78c-1.94.08-2.5-1.62-1.53-3.47l4.52-9.69c.48-1.13,1.78-2.26,3.31-2.26h3.07c.73,0,.73.73.48,1.29l-2.42,5.09Z"/>
  <path class="cls-2" d="m52.73,25.12c-.57.32-1.7.57-2.67.57h-2.18c-1.13,0-1.94.32-2.5,1.29l-.65,1.45c-.48,1.21.4,2.34,1.37,2.34h3.88s2.75-5.65,2.75-5.65Zm-13.89-5.82h10.18l1.21-2.42c.4-.73,1.78-1.37,2.5-1.37h2.91c.97,0,1.37.48.89,1.53l-1.21,2.42c-.65,1.45-1.53,2.42-3.23,2.42h-12.36c-1.13,0-2.26.48-2.75,1.45l-4.36,9.37c-.89,1.86-.16,4.52,2.1,4.52h22.7l10.26-22.21c.57-1.37.73-3.39-1.45-3.39h-19.87c-1.13,0-4.2.65-5.49,3.39l-2.02,4.28Zm-.24-7.67h-17.93l-1.78,3.88h7.67l-11.47,24.47c-1.45,3.15-3.23,4.93-7.35,4.93H2.57L.15,50h16.96c2.83,0,4.28-1.45,5.9-4.93l15.59-33.44Z"/>
  <path class="cls-1" d="m163.8,32.15c-.73.24-1.45.48-2.34.73-.89.16-1.78.32-2.83.32-1.13,0-2.02-.24-2.83-.57-.81-.4-1.37-.97-1.78-1.78-.4-.73-.57-1.7-.57-2.83.08-1.13.32-2.34.89-3.72.48-1.21,1.13-2.42,1.86-3.47s1.62-2.02,2.58-2.91c.97-.81,2.02-1.45,3.15-1.94s2.34-.73,3.55-.73c.73,0,1.37.08,1.86.16.57.08.97.24,1.37.4s.65.32.97.48l2.67-4.12c-.32-.16-.73-.4-1.21-.57s-1.13-.32-1.78-.4-1.45-.16-2.26-.16c-2.02,0-4.04.32-5.9,1.05-1.86.65-3.63,1.62-5.25,2.83s-2.99,2.67-4.28,4.28c-1.21,1.62-2.18,3.39-2.99,5.33-.73,2.02-1.13,3.8-1.21,5.33,0,1.62.24,2.91.89,4.04s1.53,2.02,2.83,2.58c1.21.57,2.83.89,4.6.89.97,0,1.94-.08,2.83-.24s1.7-.32,2.42-.48,1.29-.4,1.78-.57l.97-3.96ZM185.45,0h-5.33l-14.22,36.91h5.33L185.45,0Zm9.61,32.15c-.97.32-2.02.65-3.07.89-1.13.24-2.34.32-3.8.32-.97,0-1.94-.16-2.67-.4-.81-.32-1.45-.73-1.86-1.37-.48-.65-.73-1.45-.73-2.42s.16-2.18.73-3.63h15.99c.16-.32.32-.65.48-1.05l.48-1.21c.48-1.29.81-2.5,1.05-3.63.24-1.21.24-2.26.16-3.31s-.4-1.94-.89-2.75-1.21-1.37-2.1-1.86c-.89-.4-2.1-.65-3.55-.65-1.78,0-3.55.4-5.25,1.05-1.7.73-3.23,1.7-4.68,2.91s-2.75,2.67-3.88,4.28-2.1,3.39-2.83,5.33-1.13,3.72-1.21,5.25.16,2.91.81,4.04c.57,1.13,1.53,2.02,2.75,2.58,1.29.57,2.83.89,4.77.89,1.78,0,3.31-.16,4.85-.48,1.45-.24,2.75-.65,3.8-1.05,0,0,.65-3.72.65-3.72Zm-10.02-10.5c.32-.73.81-1.53,1.37-2.34s1.21-1.53,1.94-2.18,1.53-1.21,2.42-1.62,1.78-.65,2.75-.65c1.05,0,1.78.24,2.34.65s.89.97,1.05,1.62.16,1.37,0,2.18-.32,1.53-.65,2.34h-11.23Zm37.24-.32c.57-1.37.89-2.67,1.05-3.88s.08-2.34-.24-3.31-1.05-1.7-2.02-2.26c-1.05-.57-2.42-.81-4.28-.89-1.13,0-2.26.08-3.31.32-1.13.16-2.1.4-3.07.73s-1.78.65-2.58,1.05l-.24,3.55c.65-.32,1.37-.65,2.18-.89s1.53-.48,2.34-.65,1.53-.24,2.34-.24c.97,0,1.78.16,2.34.4s.89.65,1.13,1.05c.16.4.24.89.24,1.37s-.16.97-.24,1.53c-.16.48-.32.89-.48,1.29-2.18,0-4.2.24-6.14.57-1.86.4-3.63.97-5.17,1.78s-2.83,1.78-3.96,2.91c-1.13,1.21-1.94,2.58-2.58,4.12-.4.97-.57,1.94-.57,2.83s.16,1.7.57,2.34c.4.73.97,1.21,1.7,1.62.81.4,1.78.57,2.91.57,1.05,0,2.1-.16,3.07-.48,1.05-.32,1.94-.73,2.83-1.21s1.7-1.13,2.42-1.78h.16l-.81,2.91h4.85c.16-.81.4-1.78.81-2.83.32-1.05.73-2.1,1.13-3.23l3.63-9.29h0Zm-7.92,7.03c-.4.97-.97,1.86-1.78,2.67s-1.62,1.37-2.58,1.86-1.94.65-2.91.65c-.65,0-1.21-.16-1.7-.4-.48-.32-.73-.73-.81-1.29s0-1.37.32-2.26.81-1.62,1.45-2.26c.57-.65,1.29-1.13,2.02-1.53s1.53-.73,2.42-.89c.89-.24,1.7-.32,2.58-.4s1.78-.16,2.58-.08l-1.62,3.96Zm33.44-6.95c.73-1.94,1.13-3.55,1.13-4.93s-.24-2.42-.73-3.23-1.21-1.37-2.02-1.78c-.89-.32-1.78-.57-2.75-.48-.97,0-1.86.16-2.83.4-.89.24-1.78.57-2.58.97s-1.53.89-2.26,1.37c-.65.48-1.29,1.05-1.78,1.62h-.16l1.21-3.8h-4.68l-.73,2.18c-.24.73-.57,1.53-.81,2.34-.32.81-.65,1.7-.97,2.58l-7.03,18.26h5.33l5.9-15.27c.4-1.05.89-1.94,1.53-2.67.57-.81,1.29-1.45,2.02-1.94s1.45-.89,2.18-1.21c.73-.24,1.45-.4,2.1-.4.89,0,1.62.16,2.1.57.48.32.81.81.97,1.45s.16,1.29,0,2.1-.4,1.62-.73,2.58l-5.74,14.86h5.33s5.98-15.59,5.98-15.59Z"/>
  <path class="cls-2" d="m264.93,25.85c-7.19,0-12.92-5.82-12.92-12.92s5.82-12.92,12.92-12.92,12.92,5.82,12.92,12.92-5.82,12.92-12.92,12.92Zm0-23.83c-6.06,0-10.9,4.93-10.9,10.9s4.85,10.9,10.9,10.9,10.9-4.85,10.9-10.9-4.85-10.9-10.9-10.9Z"/>
  <path class="cls-2" d="m265.74,10.82c1.78-.48,4.77-1.94,4.77-4.52s-2.1-2.58-2.5-2.58c-.97.08-1.7.65-2.34,1.21-.32.24-1.13.48-1.62.08-.65-.48-1.37-1.13-2.34-1.21-.4,0-2.5-.08-2.5,2.5s2.91,3.96,4.77,4.44v-2.5h1.7v2.58s.08,0,.08,0Zm-.81.08c-1.13,0-2.02.89-2.02,2.02s.89,2.02,2.02,2.02,2.02-.89,2.02-2.02-.89-2.02-2.02-2.02Zm1.7,3.72c-.4,1.86-.65,5.09,1.62,6.38s3.31-.57,3.47-.89c.4-.89.24-1.78.08-2.58-.08-.4.16-1.21.73-1.45.81-.32,1.62-.65,2.18-1.45.16-.32,1.29-2.18-.97-3.39-2.26-1.29-4.85.65-6.22,1.94l2.18,1.21-.81,1.53-2.26-1.29Zm-3.96-1.45c-1.37-1.29-4.12-3.07-6.38-1.7-2.18,1.37-1.13,3.15-.89,3.47.57.81,1.45,1.13,2.18,1.37.4.16.97.73.97,1.29-.08.81-.24,1.78.16,2.58.16.32,1.29,2.18,3.47.81s1.86-4.52,1.37-6.38l-2.18,1.29-.89-1.45,2.18-1.29h0Z"/>
</svg>