<svg viewBox="0 0 343.8 61.9" xml:space="preserve" xmlns="http://www.w3.org/2000/svg"><style>.st3{fill:#FFFFFF}</style><path d="m134.2 46.1 3.7-7.9h-1.6c-1.6 0-4.6-.4-2.7-4.5l6.8-14.5h4.8l2.2-4.7h-4.8l5.9-12.7h-12.7L130 14.4h-3.2l-2.2 4.7h3.2l-10.5 22.5c-.9 1.9-.7 4.4 1.9 4.4h15v.1zm17.4-27-10.9 23.4c-.7 1.5.5 3.7 2.2 3.6H168c2.2 0 4.1-1.1 5.1-2.2.2-.2.4-.4.5-.6s.2-.3.3-.4l11.7-25.1c.6-1.3.3-3.3-1.9-3.3h-25.3c-3.5-.1-5.4 1.5-6.8 4.6zm19.3 2.7-6.4 13.8c-.7 1.5-1.6 2.6-3.1 2.6h-2.8c-1.8 0-2.4-1.8-1.7-3.4l6.2-13.2c.7-1.6 2.1-2.4 4.1-2.4h2.8c2-.1 1.8.8.9 2.6zM105 27h12.7l4.4-9.4c.7-1.6-.2-3.3-1.9-3.3H95.1c-3 0-5.6 1.7-6.4 3.4L77.2 42.4c-.5 1.2.6 3.7 2.3 3.7h30.9l3.7-7.9H95.8c-2.4.1-3.1-2-1.9-4.3l5.6-12c.6-1.4 2.2-2.8 4.1-2.8h3.8c.9 0 .9.9.6 1.6l-3 6.3z" style="fill:#FFFFFF"/><path d="M65.1 31.1c-.7.4-2.1.7-3.3.7h-2.7c-1.4 0-2.4.4-3.1 1.6l-.8 1.8c-.6 1.5.5 2.9 1.7 2.9h4.8l3.4-7zm-17.2-7.2h12.6l1.5-3c.5-.9 2.2-1.7 3.1-1.7h3.6c1.2 0 1.7.6 1.1 1.9l-1.5 3c-.8 1.8-1.9 3-4 3H49c-1.4 0-2.8.6-3.4 1.8l-5.4 11.6c-1.1 2.3-.2 5.6 2.6 5.6h28.1l12.7-27.5c.7-1.7.9-4.2-1.8-4.2H57.2c-1.4 0-5.2.8-6.8 4.2l-2.5 5.3zm-.3-9.5H25.4l-2.2 4.8h9.5L18.5 49.5c-1.8 3.9-4 6.1-9.1 6.1H3l-3 6.3h21c3.5 0 5.3-1.8 7.3-6.1l19.3-41.4z" style="fill:#FFFFFF"/><path d="M202.6 39.8c-.9.3-1.8.6-2.9.9-1.1.2-2.2.4-3.5.4-1.4 0-2.5-.3-3.5-.7-1-.5-1.7-1.2-2.2-2.2-.5-.9-.7-2.1-.7-3.5.1-1.4.4-2.9 1.1-4.6.6-1.5 1.4-3 2.3-4.3s2-2.5 3.2-3.6c1.2-1 2.5-1.8 3.9-2.4s2.9-.9 4.4-.9c.9 0 1.7.1 2.3.2.7.1 1.2.3 1.7.5s.8.4 1.2.6l3.3-5.1c-.4-.2-.9-.5-1.5-.7s-1.4-.4-2.2-.5-1.8-.2-2.8-.2c-2.5 0-5 .4-7.3 1.3-2.3.8-4.5 2-6.5 3.5s-3.7 3.3-5.3 5.3c-1.5 2-2.7 4.2-3.7 6.6-.9 2.5-1.4 4.7-1.5 6.6 0 2 .3 3.6 1.1 5s1.9 2.5 3.5 3.2c1.5.7 3.5 1.1 5.7 1.1 1.2 0 2.4-.1 3.5-.3s2.1-.4 3-.6 1.6-.5 2.2-.7l1.2-4.9zM229.4 0h-6.6l-17.6 45.7h6.6L229.4 0zm11.9 39.8c-1.2.4-2.5.8-3.8 1.1-1.4.3-2.9.4-4.7.4-1.2 0-2.4-.2-3.3-.5-1-.4-1.8-.9-2.3-1.7-.6-.8-.9-1.8-.9-3s.2-2.7.9-4.5H247c.2-.4.4-.8.6-1.3l.6-1.5c.6-1.6 1-3.1 1.3-4.5.3-1.5.3-2.8.2-4.1s-.5-2.4-1.1-3.4-1.5-1.7-2.6-2.3c-1.1-.5-2.6-.8-4.4-.8-2.2 0-4.4.5-6.5 1.3-2.1.9-4 2.1-5.8 3.6s-3.4 3.3-4.8 5.3-2.6 4.2-3.5 6.6-1.4 4.6-1.5 6.5.2 3.6 1 5c.7 1.4 1.9 2.5 3.4 3.2 1.6.7 3.5 1.1 5.9 1.1 2.2 0 4.1-.2 6-.6 1.8-.3 3.4-.8 4.7-1.3l.8-4.6zm-12.4-13c.4-.9 1-1.9 1.7-2.9s1.5-1.9 2.4-2.7 1.9-1.5 3-2 2.2-.8 3.4-.8c1.3 0 2.2.3 2.9.8s1.1 1.2 1.3 2 .2 1.7 0 2.7-.4 1.9-.8 2.9h-13.9zm46.1-.4c.7-1.7 1.1-3.3 1.3-4.8s.1-2.9-.3-4.1-1.3-2.1-2.5-2.8c-1.3-.7-3-1-5.3-1.1-1.4 0-2.8.1-4.1.4-1.4.2-2.6.5-3.8.9s-2.2.8-3.2 1.3l-.3 4.4c.8-.4 1.7-.8 2.7-1.1s1.9-.6 2.9-.8 1.9-.3 2.9-.3c1.2 0 2.2.2 2.9.5s1.1.8 1.4 1.3c.2.5.3 1.1.3 1.7s-.2 1.2-.3 1.9c-.2.6-.4 1.1-.6 1.6-2.7 0-5.2.3-7.6.7-2.3.5-4.5 1.2-6.4 2.2s-3.5 2.2-4.9 3.6c-1.4 1.5-2.4 3.2-3.2 5.1-.5 1.2-.7 2.4-.7 3.5s.2 2.1.7 2.9c.5.9 1.2 1.5 2.1 2 1 .5 2.2.7 3.6.7 1.3 0 2.6-.2 3.8-.6 1.3-.4 2.4-.9 3.5-1.5s2.1-1.4 3-2.2h.2l-1 3.6h6c.2-1 .5-2.2 1-3.5.4-1.3.9-2.6 1.4-4l4.5-11.5zm-9.8 8.7c-.5 1.2-1.2 2.3-2.2 3.3s-2 1.7-3.2 2.3-2.4.8-3.6.8c-.8 0-1.5-.2-2.1-.5-.6-.4-.9-.9-1-1.6s0-1.7.4-2.8 1-2 1.8-2.8c.7-.8 1.6-1.4 2.5-1.9s1.9-.9 3-1.1c1.1-.3 2.1-.4 3.2-.5s2.2-.2 3.2-.1l-2 4.9zm41.4-8.6c.9-2.4 1.4-4.4 1.4-6.1s-.3-3-.9-4-1.5-1.7-2.5-2.2c-1.1-.4-2.2-.7-3.4-.6-1.2 0-2.3.2-3.5.5-1.1.3-2.2.7-3.2 1.2s-1.9 1.1-2.8 1.7c-.8.6-1.6 1.3-2.2 2h-.2l1.5-4.7H285l-.9 2.7c-.3.9-.7 1.9-1 2.9-.4 1-.8 2.1-1.2 3.2l-8.7 22.6h6.6l7.3-18.9c.5-1.3 1.1-2.4 1.9-3.3.7-1 1.6-1.8 2.5-2.4s1.8-1.1 2.7-1.5c.9-.3 1.8-.5 2.6-.5 1.1 0 2 .2 2.6.7.6.4 1 1 1.2 1.8s.2 1.6 0 2.6-.5 2-.9 3.2l-7.1 18.4h6.6l7.4-19.3z" style="fill:#FFFFFF"/><path class="st3" d="M327.8 32c-8.9 0-16-7.2-16-16 0-8.9 7.2-16 16-16s16 7.2 16 16c0 8.9-7.2 16-16 16zm0-29.5c-7.5 0-13.5 6.1-13.5 13.5 0 7.5 6 13.5 13.5 13.5s13.5-6 13.5-13.5c0-7.4-6-13.5-13.5-13.5z"/><path class="st3" d="M328.8 13.4c2.2-.6 5.9-2.4 5.9-5.6s-2.6-3.2-3.1-3.2c-1.2.1-2.1.8-2.9 1.5-.4.3-1.4.6-2 .1-.8-.6-1.7-1.4-2.9-1.5-.5 0-3.1-.1-3.1 3.1s3.6 4.9 5.9 5.5v-3.1h2.1v3.2h.1zm-1 .1c-1.4 0-2.5 1.1-2.5 2.5s1.1 2.5 2.5 2.5 2.5-1.1 2.5-2.5-1.1-2.5-2.5-2.5zm2.1 4.6c-.5 2.3-.8 6.3 2 7.9s4.1-.7 4.3-1.1c.5-1.1.3-2.2.1-3.2-.1-.5.2-1.5.9-1.8 1-.4 2-.8 2.7-1.8.2-.4 1.6-2.7-1.2-4.2-2.8-1.6-6 .8-7.7 2.4l2.7 1.5-1 1.9-2.8-1.6zm-4.9-1.8c-1.7-1.6-5.1-3.8-7.9-2.1-2.7 1.7-1.4 3.9-1.1 4.3.7 1 1.8 1.4 2.7 1.7.5.2 1.2.9 1.2 1.6-.1 1-.3 2.2.2 3.2.2.4 1.6 2.7 4.3 1s2.3-5.6 1.7-7.9l-2.7 1.6-1.1-1.8 2.7-1.6z"/></svg>
